<svg xmlns="http://www.w3.org/2000/svg" viewBox="0 0 760 626" font-family="system-ui, -apple-system, Segoe UI, sans-serif">
<rect x="0" y="0" width="760" height="626" fill="#fcfcfb" />
<text x="46" y="24" font-size="14" font-weight="650" fill="#0b0b0b">Total installations over time</text>
<text x="46" y="38" font-size="11" fill="#52514e">Sum of all versions per run &#183; Aug 28 &#8211; Sep 16</text>
<line x1="46" x2="744" y1="270.0" y2="270.0" stroke="#e1e0d9" stroke-width="1" />
<text x="38" y="273.0" font-size="10.5" fill="#898781" text-anchor="end">270</text>
<line x1="46" x2="744" y1="215.0" y2="215.0" stroke="#e1e0d9" stroke-width="1" />
<text x="38" y="218.0" font-size="10.5" fill="#898781" text-anchor="end">280</text>
<line x1="46" x2="744" y1="160.0" y2="160.0" stroke="#e1e0d9" stroke-width="1" />
<text x="38" y="163.0" font-size="10.5" fill="#898781" text-anchor="end">290</text>
<line x1="46" x2="744" y1="105.0" y2="105.0" stroke="#e1e0d9" stroke-width="1" />
<text x="38" y="108.0" font-size="10.5" fill="#898781" text-anchor="end">300</text>
<line x1="46" x2="744" y1="50.0" y2="50.0" stroke="#e1e0d9" stroke-width="1" />
<text x="38" y="53.0" font-size="10.5" fill="#898781" text-anchor="end">310</text>
<text x="46.0" y="286" font-size="10.5" fill="#898781" text-anchor="middle">Aug 28</text>
<text x="156.2" y="286" font-size="10.5" fill="#898781" text-anchor="middle">Aug 31</text>
<text x="229.7" y="286" font-size="10.5" fill="#898781" text-anchor="middle">Sep 2</text>
<text x="339.9" y="286" font-size="10.5" fill="#898781" text-anchor="middle">Sep 5</text>
<text x="450.1" y="286" font-size="10.5" fill="#898781" text-anchor="middle">Sep 8</text>
<text x="560.3" y="286" font-size="10.5" fill="#898781" text-anchor="middle">Sep 11</text>
<text x="633.8" y="286" font-size="10.5" fill="#898781" text-anchor="middle">Sep 13</text>
<text x="744.0" y="286" font-size="10.5" fill="#898781" text-anchor="middle">Sep 16</text>
<path d="M 46.0,270.0 L 46.0,226.0 L 82.7,204.0 L 119.5,209.5 L 156.2,209.5 L 192.9,193.0 L 229.7,187.5 L 266.4,187.5 L 303.2,187.5 L 339.9,187.5 L 376.6,187.5 L 413.4,187.5 L 450.1,165.5 L 486.8,165.5 L 523.6,165.5 L 560.3,165.5 L 597.1,149.0 L 633.8,149.0 L 670.5,116.0 L 707.3,116.0 L 744.0,94.0 L 744.0,270.0 Z" fill="#2a78d6" opacity="0.10" stroke="none" />
<path d="M 46.0,226.0 L 82.7,204.0 L 119.5,209.5 L 156.2,209.5 L 192.9,193.0 L 229.7,187.5 L 266.4,187.5 L 303.2,187.5 L 339.9,187.5 L 376.6,187.5 L 413.4,187.5 L 450.1,165.5 L 486.8,165.5 L 523.6,165.5 L 560.3,165.5 L 597.1,149.0 L 633.8,149.0 L 670.5,116.0 L 707.3,116.0 L 744.0,94.0" fill="none" stroke="#2a78d6" stroke-width="2" stroke-linejoin="round" stroke-linecap="round" />
<circle cx="46.0" cy="226.0" r="4" fill="#2a78d6" stroke="#fcfcfb" stroke-width="2"><title>Aug 28: 278</title></circle>
<circle cx="744.0" cy="94.0" r="4" fill="#2a78d6" stroke="#fcfcfb" stroke-width="2"><title>Sep 16: 302</title></circle>
<text x="744.0" y="82.0" font-size="13" font-weight="650" fill="#0b0b0b" text-anchor="end">302</text>
<text x="46.0" y="214.0" font-size="11" fill="#52514e" text-anchor="start">278</text>
<text x="46" y="316" font-size="14" font-weight="650" fill="#0b0b0b">Version distribution over time</text>
<text x="46" y="330" font-size="11" fill="#52514e">Top 6 versions + Other, stacked</text>
<line x1="46" x2="744" y1="562.0" y2="562.0" stroke="#e1e0d9" stroke-width="1" />
<text x="38" y="565.0" font-size="10.5" fill="#898781" text-anchor="end">0</text>
<line x1="46" x2="744" y1="452.0" y2="452.0" stroke="#e1e0d9" stroke-width="1" />
<text x="38" y="455.0" font-size="10.5" fill="#898781" text-anchor="end">200</text>
<line x1="46" x2="744" y1="342.0" y2="342.0" stroke="#e1e0d9" stroke-width="1" />
<text x="38" y="345.0" font-size="10.5" fill="#898781" text-anchor="end">400</text>
<text x="46.0" y="578" font-size="10.5" fill="#898781" text-anchor="middle">Aug 28</text>
<text x="156.2" y="578" font-size="10.5" fill="#898781" text-anchor="middle">Aug 31</text>
<text x="229.7" y="578" font-size="10.5" fill="#898781" text-anchor="middle">Sep 2</text>
<text x="339.9" y="578" font-size="10.5" fill="#898781" text-anchor="middle">Sep 5</text>
<text x="450.1" y="578" font-size="10.5" fill="#898781" text-anchor="middle">Sep 8</text>
<text x="560.3" y="578" font-size="10.5" fill="#898781" text-anchor="middle">Sep 11</text>
<text x="633.8" y="578" font-size="10.5" fill="#898781" text-anchor="middle">Sep 13</text>
<text x="744.0" y="578" font-size="10.5" fill="#898781" text-anchor="middle">Sep 16</text>
<path d="M 46.0,525.1 L 82.7,525.7 L 119.5,526.8 L 156.2,529.0 L 192.9,529.0 L 229.7,529.0 L 266.4,529.5 L 303.2,530.1 L 339.9,531.2 L 376.6,531.2 L 413.4,531.8 L 450.1,532.9 L 486.8,533.4 L 523.6,534.0 L 560.3,534.0 L 597.1,534.0 L 633.8,534.0 L 670.5,534.0 L 707.3,534.0 L 744.0,534.5 L 744.0,562.0 L 707.3,562.0 L 670.5,562.0 L 633.8,562.0 L 597.1,562.0 L 560.3,562.0 L 523.6,562.0 L 486.8,562.0 L 450.1,562.0 L 413.4,562.0 L 376.6,562.0 L 339.9,562.0 L 303.2,562.0 L 266.4,562.0 L 229.7,562.0 L 192.9,562.0 L 156.2,562.0 L 119.5,562.0 L 82.7,562.0 L 46.0,562.0 Z" fill="#898781" stroke="none"><title>Other</title></path>
<path d="M 46.0,525.1 L 82.7,525.7 L 119.5,526.8 L 156.2,529.0 L 192.9,529.0 L 229.7,529.0 L 266.4,529.5 L 303.2,530.1 L 339.9,531.2 L 376.6,531.2 L 413.4,531.8 L 450.1,532.9 L 486.8,533.4 L 523.6,534.0 L 560.3,534.0 L 597.1,534.0 L 633.8,534.0 L 670.5,534.0 L 707.3,534.0 L 744.0,534.5" fill="none" stroke="#fcfcfb" stroke-width="2" />
<path d="M 46.0,460.2 L 82.7,480.6 L 119.5,491.1 L 156.2,497.6 L 192.9,499.3 L 229.7,502.6 L 266.4,505.4 L 303.2,507.6 L 339.9,510.9 L 376.6,510.9 L 413.4,514.1 L 450.1,515.8 L 486.8,516.9 L 523.6,518.5 L 560.3,518.5 L 597.1,519.6 L 633.8,519.6 L 670.5,520.2 L 707.3,520.2 L 744.0,521.3 L 744.0,534.5 L 707.3,534.0 L 670.5,534.0 L 633.8,534.0 L 597.1,534.0 L 560.3,534.0 L 523.6,534.0 L 486.8,533.4 L 450.1,532.9 L 413.4,531.8 L 376.6,531.2 L 339.9,531.2 L 303.2,530.1 L 266.4,529.5 L 229.7,529.0 L 192.9,529.0 L 156.2,529.0 L 119.5,526.8 L 82.7,525.7 L 46.0,525.1 Z" fill="#1baf7a" stroke="none"><title>2.2.1</title></path>
<path d="M 46.0,460.2 L 82.7,480.6 L 119.5,491.1 L 156.2,497.6 L 192.9,499.3 L 229.7,502.6 L 266.4,505.4 L 303.2,507.6 L 339.9,510.9 L 376.6,510.9 L 413.4,514.1 L 450.1,515.8 L 486.8,516.9 L 523.6,518.5 L 560.3,518.5 L 597.1,519.6 L 633.8,519.6 L 670.5,520.2 L 707.3,520.2 L 744.0,521.3" fill="none" stroke="#fcfcfb" stroke-width="2" />
<path d="M 46.0,425.6 L 82.7,465.8 L 119.5,483.9 L 156.2,493.2 L 192.9,496.0 L 229.7,500.9 L 266.4,503.7 L 303.2,505.9 L 339.9,509.2 L 376.6,509.2 L 413.4,512.5 L 450.1,514.1 L 486.8,515.2 L 523.6,516.9 L 560.3,516.9 L 597.1,518.0 L 633.8,518.0 L 670.5,518.5 L 707.3,518.5 L 744.0,519.6 L 744.0,521.3 L 707.3,520.2 L 670.5,520.2 L 633.8,519.6 L 597.1,519.6 L 560.3,518.5 L 523.6,518.5 L 486.8,516.9 L 450.1,515.8 L 413.4,514.1 L 376.6,510.9 L 339.9,510.9 L 303.2,507.6 L 266.4,505.4 L 229.7,502.6 L 192.9,499.3 L 156.2,497.6 L 119.5,491.1 L 82.7,480.6 L 46.0,460.2 Z" fill="#e87ba4" stroke="none"><title>2.2.2</title></path>
<path d="M 46.0,425.6 L 82.7,465.8 L 119.5,483.9 L 156.2,493.2 L 192.9,496.0 L 229.7,500.9 L 266.4,503.7 L 303.2,505.9 L 339.9,509.2 L 376.6,509.2 L 413.4,512.5 L 450.1,514.1 L 486.8,515.2 L 523.6,516.9 L 560.3,516.9 L 597.1,518.0 L 633.8,518.0 L 670.5,518.5 L 707.3,518.5 L 744.0,519.6" fill="none" stroke="#fcfcfb" stroke-width="2" />
<path d="M 46.0,409.1 L 82.7,406.9 L 119.5,407.4 L 156.2,407.4 L 192.9,422.9 L 229.7,461.4 L 266.4,478.4 L 303.2,486.6 L 339.9,493.8 L 376.6,493.8 L 413.4,502.1 L 450.1,505.4 L 486.8,508.6 L 523.6,511.9 L 560.3,511.9 L 597.1,514.7 L 633.8,514.7 L 670.5,515.2 L 707.3,515.2 L 744.0,516.4 L 744.0,519.6 L 707.3,518.5 L 670.5,518.5 L 633.8,518.0 L 597.1,518.0 L 560.3,516.9 L 523.6,516.9 L 486.8,515.2 L 450.1,514.1 L 413.4,512.5 L 376.6,509.2 L 339.9,509.2 L 303.2,505.9 L 266.4,503.7 L 229.7,500.9 L 192.9,496.0 L 156.2,493.2 L 119.5,483.9 L 82.7,465.8 L 46.0,425.6 Z" fill="#eb6834" stroke="none"><title>2.2.3</title></path>
<path d="M 46.0,409.1 L 82.7,406.9 L 119.5,407.4 L 156.2,407.4 L 192.9,422.9 L 229.7,461.4 L 266.4,478.4 L 303.2,486.6 L 339.9,493.8 L 376.6,493.8 L 413.4,502.1 L 450.1,505.4 L 486.8,508.6 L 523.6,511.9 L 560.3,511.9 L 597.1,514.7 L 633.8,514.7 L 670.5,515.2 L 707.3,515.2 L 744.0,516.4" fill="none" stroke="#fcfcfb" stroke-width="2" />
<path d="M 46.0,409.1 L 82.7,406.9 L 119.5,407.4 L 156.2,407.4 L 192.9,405.8 L 229.7,424.5 L 266.4,457.5 L 303.2,478.9 L 339.9,487.8 L 376.6,487.8 L 413.4,499.9 L 450.1,503.7 L 486.8,507.6 L 523.6,510.3 L 560.3,510.3 L 597.1,513.6 L 633.8,513.6 L 670.5,514.1 L 707.3,514.1 L 744.0,515.2 L 744.0,516.4 L 707.3,515.2 L 670.5,515.2 L 633.8,514.7 L 597.1,514.7 L 560.3,511.9 L 523.6,511.9 L 486.8,508.6 L 450.1,505.4 L 413.4,502.1 L 376.6,493.8 L 339.9,493.8 L 303.2,486.6 L 266.4,478.4 L 229.7,461.4 L 192.9,422.9 L 156.2,407.4 L 119.5,407.4 L 82.7,406.9 L 46.0,409.1 Z" fill="#eda100" stroke="none"><title>2.2.4</title></path>
<path d="M 46.0,409.1 L 82.7,406.9 L 119.5,407.4 L 156.2,407.4 L 192.9,405.8 L 229.7,424.5 L 266.4,457.5 L 303.2,478.9 L 339.9,487.8 L 376.6,487.8 L 413.4,499.9 L 450.1,503.7 L 486.8,507.6 L 523.6,510.3 L 560.3,510.3 L 597.1,513.6 L 633.8,513.6 L 670.5,514.1 L 707.3,514.1 L 744.0,515.2" fill="none" stroke="#fcfcfb" stroke-width="2" />
<path d="M 46.0,409.1 L 82.7,406.9 L 119.5,407.4 L 156.2,407.4 L 192.9,405.8 L 229.7,405.2 L 266.4,405.2 L 303.2,405.2 L 339.9,405.2 L 376.6,405.2 L 413.4,405.2 L 450.1,403.0 L 486.8,403.0 L 523.6,403.0 L 560.3,403.0 L 597.1,401.4 L 633.8,401.4 L 670.5,398.1 L 707.3,398.1 L 744.0,421.8 L 744.0,515.2 L 707.3,514.1 L 670.5,514.1 L 633.8,513.6 L 597.1,513.6 L 560.3,510.3 L 523.6,510.3 L 486.8,507.6 L 450.1,503.7 L 413.4,499.9 L 376.6,487.8 L 339.9,487.8 L 303.2,478.9 L 266.4,457.5 L 229.7,424.5 L 192.9,405.8 L 156.2,407.4 L 119.5,407.4 L 82.7,406.9 L 46.0,409.1 Z" fill="#2a78d6" stroke="none"><title>2.2.5</title></path>
<path d="M 46.0,409.1 L 82.7,406.9 L 119.5,407.4 L 156.2,407.4 L 192.9,405.8 L 229.7,405.2 L 266.4,405.2 L 303.2,405.2 L 339.9,405.2 L 376.6,405.2 L 413.4,405.2 L 450.1,403.0 L 486.8,403.0 L 523.6,403.0 L 560.3,403.0 L 597.1,401.4 L 633.8,401.4 L 670.5,398.1 L 707.3,398.1 L 744.0,421.8" fill="none" stroke="#fcfcfb" stroke-width="2" />
<path d="M 46.0,409.1 L 82.7,406.9 L 119.5,407.4 L 156.2,407.4 L 192.9,405.8 L 229.7,405.2 L 266.4,405.2 L 303.2,405.2 L 339.9,405.2 L 376.6,405.2 L 413.4,405.2 L 450.1,403.0 L 486.8,403.0 L 523.6,403.0 L 560.3,403.0 L 597.1,401.4 L 633.8,401.4 L 670.5,398.1 L 707.3,398.1 L 744.0,395.9 L 744.0,421.8 L 707.3,398.1 L 670.5,398.1 L 633.8,401.4 L 597.1,401.4 L 560.3,403.0 L 523.6,403.0 L 486.8,403.0 L 450.1,403.0 L 413.4,405.2 L 376.6,405.2 L 339.9,405.2 L 303.2,405.2 L 266.4,405.2 L 229.7,405.2 L 192.9,405.8 L 156.2,407.4 L 119.5,407.4 L 82.7,406.9 L 46.0,409.1 Z" fill="#008300" stroke="none"><title>2.2.6</title></path>
<path d="M 46.0,409.1 L 82.7,406.9 L 119.5,407.4 L 156.2,407.4 L 192.9,405.8 L 229.7,405.2 L 266.4,405.2 L 303.2,405.2 L 339.9,405.2 L 376.6,405.2 L 413.4,405.2 L 450.1,403.0 L 486.8,403.0 L 523.6,403.0 L 560.3,403.0 L 597.1,401.4 L 633.8,401.4 L 670.5,398.1 L 707.3,398.1 L 744.0,395.9" fill="none" stroke="#fcfcfb" stroke-width="2" />
<text x="738.0" y="552.2" font-size="11" font-weight="650" fill="#ffffff" text-anchor="end">Other</text>
<text x="738.0" y="531.9" font-size="11" font-weight="650" fill="#ffffff" text-anchor="end">2.2.1</text>
<text x="738.0" y="472.5" font-size="11" font-weight="650" fill="#ffffff" text-anchor="end">2.2.5</text>
<text x="738.0" y="412.8" font-size="11" font-weight="650" fill="#ffffff" text-anchor="end">2.2.6</text>
<line x1="46" x2="744" y1="562.0" y2="562.0" stroke="#c3c2b7" stroke-width="1" />
<line x1="46.0" x2="60.0" y1="598.0" y2="598.0" stroke="#008300" stroke-width="3" stroke-linecap="round" />
<text x="66.0" y="602.0" font-size="11.5" fill="#52514e">2.2.6 (47)</text>
<line x1="142.0" x2="156.0" y1="598.0" y2="598.0" stroke="#2a78d6" stroke-width="3" stroke-linecap="round" />
<text x="162.0" y="602.0" font-size="11.5" fill="#52514e">2.2.5 (170)</text>
<line x1="244.2" x2="258.2" y1="598.0" y2="598.0" stroke="#eda100" stroke-width="3" stroke-linecap="round" />
<text x="264.2" y="602.0" font-size="11.5" fill="#52514e">2.2.4 (2)</text>
<line x1="334.0" x2="348.0" y1="598.0" y2="598.0" stroke="#eb6834" stroke-width="3" stroke-linecap="round" />
<text x="354.0" y="602.0" font-size="11.5" fill="#52514e">2.2.3 (6)</text>
<line x1="423.8" x2="437.8" y1="598.0" y2="598.0" stroke="#e87ba4" stroke-width="3" stroke-linecap="round" />
<text x="443.8" y="602.0" font-size="11.5" fill="#52514e">2.2.2 (3)</text>
<line x1="513.6" x2="527.6" y1="598.0" y2="598.0" stroke="#1baf7a" stroke-width="3" stroke-linecap="round" />
<text x="533.6" y="602.0" font-size="11.5" fill="#52514e">2.2.1 (24)</text>
<line x1="609.6" x2="623.6" y1="598.0" y2="598.0" stroke="#898781" stroke-width="3" stroke-linecap="round" />
<text x="629.6" y="602.0" font-size="11.5" fill="#52514e">Other (50)</text>
</svg>